<?xml version="1.0" encoding="UTF-8"?><svg xmlns="http://www.w3.org/2000/svg" xmlns:xlink="http://www.w3.org/1999/xlink" height="388.5" preserveAspectRatio="xMidYMid meet" version="1.0" viewBox="-1.4 -1.2 748.0 388.5" width="748.0" zoomAndPan="magnify"><g><g id="change1_3"><path d="M22.8,80.4c-2,11.9-5,23.6-7.2,35.5c-2.1,11.3-4.2,22.6-6.2,34c-4.2,23-7.9,46.1-9,69.5 c-1.8,37,3.5,75.8,21.7,108.7c9.9,17.9,23.4,32.9,41,43.3c5.4,3.2,9.6-4.6,4.8-8.3c-27.4-20.9-44.3-52.5-52-85.6 c-9.3-39.8-4.8-80.9,0.5-120.9c1.7-12.7,3.6-25.3,5.2-38c1.6-12.8,1.9-25.2,2.3-38.1C23.8,80,22.9,79.9,22.8,80.4L22.8,80.4z" fill="#0ee071"/></g><g id="change2_1"><path d="M22,83.5c5.4,22.7,17.1,43.3,31.4,61.5c14.4,18.4,29.9,36.2,48.4,50.5c18.9,14.6,40,23.4,63.6,27.2 c24.1,3.9,48.8,4,72.4,10.6c35.3,9.9,61.2,37.1,85,63.5c22.9,25.5,45.7,53.4,76.6,69.5c40.3,21,95.8,16.3,124.5-21.8 c4-5.3-4.2-10.4-8.6-6.6c-15.4,13-33.8,23.1-53.9,26.1c-17.8,2.7-36.1-0.6-52.3-8.4c-29.9-14.4-52-40.8-73.8-65 c-22.5-24.9-46.4-50.6-77.9-64.1c-42.7-18.2-92.2-7.4-133.4-30.2c-21.9-12.1-39.6-30.5-56-49.1c-17.1-19.4-34.4-39.8-43.4-64.4 C24,81.2,21.6,81.8,22,83.5L22,83.5z" fill="#2433ed"/></g><g id="change1_1"><path d="M23,81.5c5.7,8.6,10.8,17.1,18.1,24.6c7.2,7.4,15.3,14.1,23.8,20c16.9,11.7,36.2,19.7,56.3,23.7 c22.9,4.6,46.2,3.3,69.3,1c23.1-2.3,47-5.4,70-0.7c44.5,9.1,67.1,50.3,99.3,77.9c34.2,29.4,77.4,47.3,122.4,50.9 c25.2,2,50.9-0.9,75.1-8.1c24.1-7.1,50.3-18.3,68.8-35.7c6.3-5.9-1.8-16.4-9.2-11.9c-9.6,5.8-18.7,12.3-28.6,17.5 c-9.5,5.1-19.4,9.3-29.7,12.8c-20.9,7-42.8,10.6-64.8,10.3c-42.6-0.5-85.1-15.6-118.6-42c-32.3-25.5-54.3-64.4-93.9-80 c-43.6-17.2-90.9-0.5-135.9-1.4c-23-0.5-45.2-6.7-65.8-16.8c-10.3-5-20.2-11.2-29.1-18.4c-9.1-7.3-18.9-15.5-26-24.7 C23.9,79.6,22.3,80.5,23,81.5L23,81.5z" fill="#0ee071"/></g><g id="change2_2"><path d="M23.7,87.5c36.8,25.8,83.4,34.5,127.1,23.8c22.7-5.6,44-15.2,66.1-22.6c23.4-7.9,46.6-11.6,71.3-9.7 c25.4,1.9,50.3,8.4,75.1,13.8c24.3,5.3,48.7,9.8,73.4,13.2c48.5,6.6,97.7,8.4,146.3,1.8c25-3.4,50.8-8.3,74.1-18.3 c9.5-4.1,18.7-9.4,26.2-16.6c8.1-7.8,12.6-17.1,13.8-28.2c0.8-7.9-11.9-9.4-13.7-1.9c-4,16.5-18.9,26.6-33.7,32.9 c-20.2,8.6-42.9,13-64.5,16.3c-46.6,7.3-94.4,5.9-141.1,0.2c-23.4-2.9-46.7-6.9-69.8-11.7c-23.9-5-47.6-10.9-71.8-14.1 c-23.7-3.1-47.5-2.6-70.7,3.5c-21.7,5.7-42.2,15.1-63.4,22.5c-23.4,8.2-47.4,13-72.4,11C71.8,101.5,48,94.3,26.9,82 C23.4,79.9,20.5,85.2,23.7,87.5L23.7,87.5z" fill="#2433ed"/></g><g id="change1_2"><path d="M23.4,85.9c31.4,23.4,73.4,8.3,102.8-10.8C143,64.2,158.7,51.4,176,41.2c18.1-10.5,37.9-16.5,58.5-19.6 c42.9-6.6,87.5-4,130.6-0.9c43.6,3.1,87.1,7.7,130.7,8.7c24,0.5,48.1,0,72-2.7c23.7-2.7,48.6-6.3,70.7-15.6 c6.5-2.7,1.7-12.3-4.6-10.9c-10.4,2.4-20.6,5.5-31.1,7.8c-10.4,2.3-20.9,4.1-31.4,5.4c-20.8,2.6-41.8,3.5-62.8,3.4 c-42.7-0.1-85.2-4.2-127.8-7.4c-42.7-3.2-85.8-5.8-128.5-2.1c-20.4,1.8-40.9,5.1-60,12.6c-18.7,7.3-35,18.4-51,30.3 c-17.4,12.9-35,26.3-55.8,33c-19.1,6.1-40.7,6.9-58.1-4.2C23,76,19.3,82.9,23.4,85.9L23.4,85.9z" fill="#0ee071"/></g><g id="change3_2"><path d="M21.6,81.9c10.2,14.5,18.5,30.9,24.1,47.7c6.2,18.7,7.9,38.5,8.6,58.1c1.2,35.9-0.5,72.2,14.6,105.7 c12.4,27.4,35.4,49.2,66.4,51.7c31.3,2.5,60.3-13.6,89.9-20.8c16-3.9,33.3-5.2,48.4,2.5c8.1,4.1,14.9,10.1,20.7,17 c6.1,7.3,10,15.9,15.2,23.7c3.4,5.1,11.6,2,10-4.2c-4-15.4-15.8-30.3-28.1-40.1c-12.4-9.8-27.3-14.9-43.1-14.9 c-31.5-0.1-59.9,16.5-90.4,22.2c-14.4,2.7-29.7,2.3-43-4.4c-12.9-6.6-22.6-17.7-29.6-30.2C68.1,265,68.6,229.5,67.6,195.2 c-0.6-22.5-2.1-45.1-9.5-66.5C51.6,109.3,40.9,92.6,26,78.4C23.8,76.3,19.7,79.1,21.6,81.9L21.6,81.9z" fill="#f4de14"/></g><g id="change3_1"><path d="M433.6,169.5c44.6,17.6,93.1,24.2,140.8,18.9c23.8-2.6,47.2-8,69.8-16.2c22.1-8.1,44.1-18.4,63.2-32.2 c10.4-7.5,20-16.2,27.1-27c6.5-9.7,12.1-23.2,8-34.8c-1.5-4.4-8.4-5.1-9.6,0c-2.4,10.1-3.5,19.5-9.2,28.5 c-5.6,8.8-13.4,16.2-21.7,22.5c-17.7,13.6-38.5,24-59.1,32.1c-42,16.5-87.4,23.5-132.4,21.4c-26.1-1.3-51.9-6-76.7-14 C433.3,168.5,433.1,169.3,433.6,169.5L433.6,169.5z" fill="#f4de14"/></g></g></svg>