<?xml version="1.0" encoding="UTF-8"?><svg xmlns="http://www.w3.org/2000/svg" xmlns:xlink="http://www.w3.org/1999/xlink" height="191.0" preserveAspectRatio="xMidYMid meet" version="1.0" viewBox="0.0 -4.5 251.9 191.0" width="251.9" zoomAndPan="magnify"><g id="change1_2"><path d="M0,46.08c0,0,57.89-50.56,126.74-26.77S226.36,0,226.36,0l25.56,150.55c0,0-77.71,27.12-121.52,5.74 S29.73,186.53,28.16,186.01S0,46.08,0,46.08z" fill="#039739"/></g><g id="change2_1"><path d="M214.28,77.42l-78.93,69.32L42.52,97.57l78.93-69.32L214.28,77.42z" fill="#ffc800"/></g><g id="change3_1"><path d="M168.81,82.77c2.61,22.23-13.3,42.37-35.53,44.98c-22.23,2.61-42.37-13.3-44.98-35.53s13.3-42.37,35.53-44.98 S166.2,60.54,168.81,82.77z" fill="#002671"/></g><g id="change4_1"><path d="M86.98,80.98c0,0,41.14-8.37,82.35,6.28l-0.45,9.22c0,0-45.37-12.39-82.45-6.56L86.98,80.98z M104.18,101.07 l-1.25-0.81l-0.03,1.45l-0.87,0.88l1.2,0.34l0.62,1.19l0.56-1.03l1.17,0.06l-0.6-0.99l0.32-1.39L104.18,101.07z M107.38,111.53 l-1.01-1.1l-0.39,1.39l-1.06,0.63l1.08,0.63l0.31,1.3l0.8-0.86l1.12,0.35l-0.33-1.11l0.66-1.27L107.38,111.53z M130.97,102.14 l-1.01-1.1l-0.39,1.39l-1.06,0.63l1.08,0.63l0.31,1.3l0.8-0.86l1.12,0.35l-0.33-1.11l0.66-1.27L130.97,102.14z M147.02,115.25 l-1.01-1.1l-0.39,1.39l-1.06,0.63l1.08,0.63l0.31,1.3l0.8-0.86l1.12,0.35l-0.33-1.11l0.66-1.27L147.02,115.25z M113.12,108.4 l-0.86-0.84l-0.25,1.14l-0.82,0.56l0.9,0.46l0.31,1.03l0.6-0.73l0.91,0.23l-0.32-0.88l0.47-1.05L113.12,108.4z M154.56,110.07 l-0.86-0.84l-0.25,1.14l-0.82,0.56l0.9,0.46l0.31,1.03l0.6-0.73l0.91,0.23l-0.32-0.88l0.47-1.05L154.56,110.07z M160.32,99.69 l-0.86-0.84l-0.25,1.14l-0.82,0.56l0.9,0.46l0.31,1.03l0.6-0.73l0.91,0.23l-0.32-0.88l0.47-1.05L160.32,99.69z M117.84,115.81 l-0.86-0.84l-0.25,1.14l-0.82,0.56l0.9,0.46l0.31,1.03l0.6-0.73l0.91,0.23l-0.32-0.88l0.47-1.05L117.84,115.81z M115.67,106.79 l-0.52-0.51l-0.15,0.69l-0.5,0.34l0.55,0.28l0.19,0.63l0.37-0.44l0.56,0.14l-0.19-0.53l0.29-0.64L115.67,106.79z M157.65,108.37 l-0.52-0.51l-0.15,0.69l-0.5,0.34l0.55,0.28l0.19,0.63l0.37-0.44l0.56,0.14l-0.19-0.53l0.29-0.64L157.65,108.37z M142.3,93.57 l-0.52-0.51l-0.15,0.69l-0.5,0.34l0.55,0.28l0.19,0.63l0.37-0.44l0.56,0.14l-0.19-0.53l0.29-0.64L142.3,93.57z M141.29,77.28 l-0.52-0.51l-0.15,0.69l-0.5,0.34l0.55,0.28l0.19,0.63l0.37-0.44l0.56,0.14l-0.19-0.53l0.29-0.64L141.29,77.28z M119.67,108.87 l-0.52-0.51l-0.15,0.69l-0.5,0.34l0.55,0.28l0.19,0.63l0.37-0.44l0.56,0.14l-0.19-0.53l0.29-0.64L119.67,108.87z M159.58,106.41 l-0.52-0.51l-0.15,0.69l-0.5,0.34l0.55,0.28l0.19,0.63l0.37-0.44l0.56,0.14l-0.19-0.53l0.29-0.64L159.58,106.41z M127.87,106.04 l-0.36-0.59l-0.29,0.63l-0.52,0.22l0.43,0.37l0.03,0.63l0.43-0.35l0.47,0.24l-0.06-0.55l0.4-0.55L127.87,106.04z M129.56,108.67 l-0.35-0.34l-0.1,0.47l-0.34,0.23l0.37,0.19l0.13,0.42l0.25-0.3l0.37,0.09l-0.13-0.36l0.19-0.43L129.56,108.67z M131.62,119.69 l-0.28-0.28l-0.08,0.38l-0.27,0.18l0.3,0.15l0.1,0.34l0.2-0.24l0.3,0.07l-0.11-0.29l0.15-0.35L131.62,119.69z M164.12,101.27 l-0.28-0.28l-0.08,0.38l-0.27,0.18l0.3,0.15l0.1,0.34l0.2-0.24l0.3,0.07l-0.11-0.29l0.15-0.35L164.12,101.27z M130.65,111.44 l-0.44-0.43l-0.13,0.58l-0.42,0.28l0.46,0.23l0.16,0.53l0.31-0.37l0.47,0.12l-0.16-0.45l0.24-0.54L130.65,111.44z M161.33,104.05 l-0.44-0.43l-0.13,0.58l-0.42,0.28l0.46,0.23l0.16,0.53l0.31-0.37l0.47,0.12l-0.16-0.45l0.24-0.54L161.33,104.05z M155.11,113.95 l-0.44-0.43l-0.13,0.58l-0.42,0.28l0.46,0.23l0.16,0.53l0.31-0.37l0.47,0.12l-0.16-0.45l0.24-0.54L155.11,113.95z M153.54,106.97 l-0.44-0.43l-0.13,0.58l-0.42,0.28l0.46,0.23l0.16,0.53l0.31-0.37l0.47,0.12l-0.16-0.45l0.24-0.54L153.54,106.97z M135.2,104.47 l-0.52-0.51l-0.15,0.69l-0.5,0.34l0.55,0.28l0.19,0.63l0.37-0.44l0.56,0.14l-0.19-0.53l0.29-0.64L135.2,104.47z M149.14,112.81 l-0.52-0.51l-0.15,0.69l-0.5,0.34l0.55,0.28l0.19,0.63l0.37-0.44l0.56,0.14l-0.19-0.53l0.29-0.64L149.14,112.81z M141.95,114.22 l-0.52-0.51l-0.15,0.69l-0.5,0.34l0.55,0.28l0.19,0.63l0.37-0.44l0.56,0.14l-0.19-0.53l0.29-0.64L141.95,114.22z M119.86,99.53 l-0.52-0.51l-0.15,0.69l-0.5,0.34l0.55,0.28l0.19,0.63l0.37-0.44l0.56,0.14l-0.19-0.53l0.29-0.64L119.86,99.53z M119.07,111.49 l-0.52-0.51l-0.15,0.69l-0.5,0.34l0.55,0.28l0.19,0.63l0.37-0.44l0.56,0.14l-0.19-0.53l0.29-0.64L119.07,111.49z" fill="#f7f7f7"/></g><g id="change1_1"><path d="M91.28,84.44c-0.03-0.7,0.15-1.25,0.52-1.66c0.38-0.41,0.91-0.62,1.61-0.65c0.71-0.03,1.27,0.14,1.67,0.51 c0.4,0.37,0.61,0.9,0.64,1.59c0.02,0.5-0.05,0.92-0.21,1.24s-0.39,0.59-0.7,0.78c-0.31,0.19-0.71,0.3-1.18,0.31 c-0.48,0.02-0.89-0.04-1.21-0.19c-0.32-0.14-0.59-0.38-0.8-0.7C91.42,85.35,91.3,84.94,91.28,84.44z M92.61,84.39 c0.02,0.43,0.11,0.74,0.28,0.92c0.17,0.18,0.39,0.27,0.67,0.26c0.28-0.01,0.5-0.11,0.65-0.3c0.15-0.19,0.21-0.53,0.2-1.01 c-0.01-0.4-0.11-0.7-0.28-0.88c-0.17-0.18-0.39-0.27-0.67-0.26c-0.27,0.01-0.48,0.11-0.63,0.31C92.66,83.64,92.59,83.95,92.61,84.39 z M96.55,86.39l-0.1-4.29l2.21-0.05c0.41-0.01,0.72,0.02,0.94,0.08c0.22,0.06,0.4,0.19,0.53,0.38c0.14,0.19,0.21,0.42,0.22,0.69 c0.01,0.24-0.04,0.44-0.14,0.62c-0.1,0.18-0.23,0.32-0.41,0.43c-0.11,0.07-0.27,0.13-0.46,0.18c0.16,0.05,0.28,0.1,0.35,0.15 c0.05,0.03,0.12,0.11,0.22,0.22c0.1,0.11,0.16,0.2,0.19,0.26l0.67,1.23l-1.5,0.04l-0.74-1.3c-0.09-0.17-0.18-0.27-0.25-0.33 c-0.1-0.06-0.21-0.09-0.33-0.09l-0.12,0l0.04,1.74L96.55,86.39z M97.82,83.81l0.56-0.01c0.06,0,0.18-0.02,0.35-0.07 c0.09-0.02,0.16-0.07,0.21-0.14c0.05-0.07,0.08-0.16,0.08-0.25c0-0.14-0.05-0.24-0.14-0.32c-0.09-0.07-0.26-0.11-0.5-0.1l-0.58,0.01 L97.82,83.81z M101.14,81.99l1.97-0.02c0.39,0,0.7,0.04,0.94,0.15c0.24,0.1,0.44,0.25,0.6,0.45c0.16,0.2,0.27,0.42,0.35,0.69 c0.07,0.26,0.11,0.54,0.11,0.83c0,0.46-0.04,0.82-0.15,1.07c-0.1,0.25-0.25,0.47-0.43,0.64c-0.18,0.17-0.38,0.29-0.59,0.35 c-0.29,0.08-0.55,0.12-0.79,0.12l-1.97,0.02L101.14,81.99z M102.48,82.95l0.02,2.35l0.33,0c0.28,0,0.47-0.04,0.59-0.1 c0.12-0.06,0.21-0.17,0.27-0.33c0.06-0.15,0.1-0.4,0.09-0.75c0-0.46-0.08-0.77-0.23-0.93c-0.15-0.17-0.4-0.25-0.74-0.24 L102.48,82.95z M105.83,81.95l3.56,0.01l0,0.92l-2.23-0.01l0,0.68l2.07,0l0,0.88l-2.07,0l0,0.85l2.29,0.01l0,0.97l-3.62-0.01 L105.83,81.95z M110.21,81.96l1.75,0.03l0.63,2.62l0.71-2.6l1.74,0.03l-0.07,4.29l-1.09-0.02l0.06-3.27l-0.89,3.26l-0.98-0.02 L111.28,83l-0.06,3.28l-1.09-0.02L110.21,81.96z M117.95,82.13l3.55,0.14l-0.04,0.92l-2.23-0.09l-0.03,0.68l2.06,0.08l-0.03,0.88 l-2.06-0.08l-0.03,0.85l2.29,0.09l-0.04,0.97l-3.62-0.14L117.95,82.13z M124.36,82.41l2.2,0.13c0.48,0.03,0.83,0.16,1.06,0.41 c0.22,0.24,0.32,0.57,0.3,0.99c-0.03,0.43-0.18,0.76-0.45,0.99c-0.27,0.23-0.68,0.33-1.21,0.29l-0.73-0.04l-0.09,1.59l-1.33-0.08 L124.36,82.41z M125.58,84.32l0.32,0.02c0.26,0.02,0.44-0.02,0.55-0.1c0.11-0.08,0.17-0.19,0.18-0.33c0.01-0.13-0.03-0.25-0.11-0.35 c-0.08-0.1-0.25-0.15-0.5-0.17l-0.38-0.02L125.58,84.32z M128.41,86.96l0.33-4.28l2.21,0.17c0.41,0.03,0.72,0.09,0.93,0.18 c0.21,0.09,0.38,0.23,0.49,0.43c0.12,0.2,0.17,0.44,0.15,0.71c-0.02,0.24-0.08,0.44-0.2,0.6c-0.11,0.17-0.26,0.29-0.45,0.39 c-0.12,0.06-0.28,0.1-0.48,0.13c0.15,0.06,0.26,0.12,0.33,0.18c0.05,0.04,0.11,0.12,0.2,0.24c0.08,0.12,0.14,0.22,0.17,0.28 l0.55,1.29l-1.5-0.11l-0.61-1.36c-0.08-0.18-0.15-0.29-0.21-0.35c-0.09-0.07-0.2-0.12-0.32-0.12l-0.12-0.01l-0.13,1.74L128.41,86.96 z M129.93,84.51l0.56,0.04c0.06,0,0.18-0.01,0.36-0.03c0.09-0.01,0.16-0.05,0.23-0.12c0.06-0.07,0.09-0.15,0.1-0.24 c0.01-0.14-0.03-0.25-0.11-0.33c-0.08-0.08-0.24-0.13-0.49-0.15L130,83.64L129.93,84.51z M132.98,85.16 c0.07-0.7,0.31-1.22,0.74-1.58c0.43-0.35,0.99-0.5,1.68-0.43c0.71,0.07,1.24,0.31,1.59,0.73c0.35,0.42,0.49,0.97,0.42,1.66 c-0.05,0.5-0.17,0.9-0.37,1.21c-0.2,0.3-0.46,0.53-0.8,0.68c-0.33,0.15-0.74,0.2-1.21,0.15c-0.48-0.04-0.87-0.16-1.18-0.34 c-0.3-0.18-0.54-0.45-0.7-0.8C133,86.08,132.94,85.66,132.98,85.16z M134.31,85.29c-0.04,0.43,0.01,0.75,0.15,0.95 c0.14,0.2,0.35,0.32,0.63,0.35c0.28,0.03,0.51-0.05,0.69-0.21c0.17-0.17,0.28-0.49,0.33-0.97c0.04-0.4-0.01-0.7-0.16-0.91 c-0.14-0.2-0.36-0.31-0.63-0.34c-0.27-0.03-0.49,0.05-0.67,0.22S134.35,84.85,134.31,85.29z M140.22,86.49l0.1-0.89l2.04,0.24 l-0.21,1.82c-0.42,0.22-0.79,0.36-1.1,0.42c-0.31,0.06-0.67,0.07-1.08,0.02c-0.51-0.06-0.91-0.19-1.21-0.4 c-0.3-0.21-0.52-0.5-0.65-0.86c-0.14-0.36-0.18-0.76-0.13-1.21c0.05-0.47,0.2-0.86,0.43-1.18c0.23-0.32,0.54-0.55,0.93-0.69 c0.31-0.1,0.7-0.13,1.19-0.07c0.47,0.05,0.82,0.14,1.04,0.25c0.22,0.11,0.4,0.27,0.54,0.47c0.13,0.2,0.22,0.44,0.27,0.72l-1.3,0.08 c-0.03-0.17-0.11-0.3-0.22-0.4c-0.12-0.1-0.27-0.16-0.46-0.18c-0.29-0.03-0.53,0.04-0.73,0.22s-0.32,0.49-0.37,0.92 c-0.05,0.46,0,0.8,0.15,1.02c0.15,0.22,0.38,0.35,0.69,0.38c0.15,0.02,0.29,0.01,0.43-0.01c0.14-0.03,0.3-0.08,0.49-0.17l0.05-0.4 L140.22,86.49z M142.86,88.37l0.59-4.25l2.19,0.3c0.41,0.06,0.71,0.13,0.92,0.23c0.21,0.1,0.36,0.25,0.47,0.46 c0.11,0.21,0.14,0.45,0.1,0.72c-0.03,0.24-0.11,0.43-0.24,0.59s-0.28,0.28-0.47,0.36c-0.12,0.05-0.28,0.09-0.49,0.1 c0.15,0.07,0.26,0.14,0.32,0.2c0.04,0.04,0.1,0.13,0.18,0.25c0.08,0.13,0.12,0.22,0.15,0.29l0.47,1.32l-1.49-0.2l-0.52-1.4 c-0.07-0.18-0.13-0.3-0.19-0.36c-0.09-0.08-0.19-0.13-0.31-0.14l-0.12-0.02l-0.24,1.73L142.86,88.37z M144.53,86.02l0.55,0.08 c0.06,0.01,0.18,0,0.36-0.01c0.09-0.01,0.17-0.04,0.23-0.1c0.06-0.06,0.1-0.14,0.12-0.24c0.02-0.14-0.01-0.25-0.09-0.33 c-0.08-0.09-0.24-0.15-0.48-0.18l-0.58-0.08L144.53,86.02z M148.1,84.77l3.51,0.57l-0.15,0.91l-2.2-0.35l-0.11,0.67l2.04,0.33 l-0.14,0.86l-2.04-0.33l-0.13,0.84l2.26,0.37l-0.15,0.96l-3.58-0.58L148.1,84.77z M151.72,88.27l1.26,0.15 c-0.01,0.21,0.01,0.37,0.08,0.49c0.1,0.19,0.28,0.32,0.53,0.36c0.19,0.03,0.34,0.02,0.46-0.05c0.12-0.07,0.19-0.16,0.21-0.28 c0.02-0.11-0.01-0.22-0.09-0.32c-0.08-0.1-0.29-0.23-0.62-0.37c-0.55-0.24-0.92-0.48-1.13-0.74c-0.21-0.26-0.28-0.55-0.22-0.88 c0.04-0.22,0.14-0.41,0.3-0.58c0.16-0.17,0.38-0.29,0.65-0.35c0.27-0.06,0.63-0.05,1.07,0.03c0.54,0.1,0.93,0.28,1.18,0.53 c0.25,0.25,0.35,0.6,0.33,1.05l-1.24-0.16c0-0.2-0.04-0.35-0.13-0.45c-0.09-0.11-0.23-0.18-0.41-0.21 c-0.15-0.03-0.27-0.02-0.36,0.03c-0.09,0.05-0.14,0.12-0.16,0.21c-0.01,0.07,0.01,0.13,0.06,0.2c0.05,0.07,0.19,0.15,0.41,0.24 c0.55,0.23,0.93,0.43,1.16,0.6c0.22,0.17,0.37,0.36,0.45,0.57c0.08,0.21,0.09,0.43,0.05,0.66c-0.05,0.27-0.17,0.51-0.36,0.71 c-0.19,0.2-0.43,0.33-0.73,0.4c-0.29,0.07-0.64,0.06-1.05-0.01c-0.72-0.13-1.19-0.36-1.41-0.69 C151.77,89.08,151.68,88.7,151.72,88.27z M155.98,89.07l1.25,0.19c-0.02,0.21,0,0.37,0.07,0.49c0.1,0.2,0.27,0.33,0.52,0.38 c0.19,0.04,0.34,0.03,0.46-0.04c0.12-0.06,0.19-0.16,0.21-0.27c0.02-0.11,0-0.22-0.08-0.32c-0.08-0.11-0.28-0.23-0.61-0.39 c-0.54-0.25-0.91-0.51-1.11-0.77c-0.2-0.26-0.26-0.56-0.19-0.89c0.05-0.22,0.15-0.41,0.32-0.57c0.17-0.17,0.39-0.28,0.66-0.33 c0.27-0.05,0.63-0.04,1.07,0.06c0.54,0.12,0.92,0.3,1.16,0.56c0.24,0.26,0.34,0.61,0.3,1.06l-1.24-0.19 c0.01-0.2-0.03-0.35-0.12-0.46c-0.09-0.11-0.22-0.18-0.4-0.22c-0.15-0.03-0.27-0.03-0.36,0.02c-0.09,0.05-0.15,0.12-0.17,0.21 c-0.01,0.07,0,0.13,0.06,0.2c0.05,0.07,0.18,0.15,0.4,0.25c0.54,0.24,0.92,0.46,1.14,0.63c0.22,0.18,0.36,0.37,0.44,0.58 c0.07,0.21,0.08,0.43,0.03,0.66c-0.06,0.27-0.19,0.5-0.38,0.7c-0.2,0.19-0.44,0.32-0.74,0.38c-0.29,0.06-0.64,0.04-1.05-0.04 c-0.71-0.15-1.18-0.4-1.4-0.73C156.01,89.89,155.93,89.5,155.98,89.07z M160.47,89.3c0.17-0.68,0.49-1.16,0.96-1.45 s1.05-0.34,1.73-0.17c0.69,0.17,1.18,0.49,1.46,0.96c0.28,0.47,0.34,1.04,0.17,1.71c-0.12,0.49-0.3,0.87-0.54,1.14 s-0.54,0.45-0.89,0.55c-0.35,0.1-0.76,0.09-1.22-0.03c-0.47-0.12-0.84-0.29-1.11-0.52c-0.27-0.23-0.46-0.52-0.57-0.9 C160.34,90.21,160.35,89.79,160.47,89.3z M161.75,89.62c-0.1,0.42-0.1,0.74,0.01,0.96c0.11,0.22,0.3,0.37,0.57,0.43 c0.28,0.07,0.51,0.03,0.71-0.11s0.35-0.45,0.47-0.91c0.1-0.39,0.09-0.7-0.02-0.92c-0.11-0.22-0.3-0.36-0.58-0.43 c-0.26-0.06-0.49-0.02-0.69,0.12C162.01,88.91,161.86,89.2,161.75,89.62z" fill="#039739"/></g></svg>